<svg xmlns="http://www.w3.org/2000/svg" width="32" height="32" viewBox="0 0 32 32" fill="none" class="two_elementor_element"><g id="carbon:license-global" class="two_elementor_element"><path id="Vector" d="M22 14C20.4177 14 18.871 14.4692 17.5554 15.3482C16.2398 16.2273 15.2145 17.4767 14.609 18.9385C14.0035 20.4003 13.845 22.0089 14.1537 23.5607C14.4624 25.1126 15.2243 26.538 16.3431 27.6569C17.462 28.7757 18.8874 29.5376 20.4393 29.8463C21.9911 30.155 23.5997 29.9965 25.0615 29.391C26.5233 28.7855 27.7727 27.7602 28.6518 26.4446C29.5308 25.129 30 23.5823 30 22C29.9974 19.8791 29.1536 17.8458 27.6539 16.3461C26.1542 14.8464 24.1209 14.0026 22 14ZM27.91 21H25.956C25.8261 19.4922 25.4129 18.0225 24.738 16.668C25.5664 17.0947 26.2841 17.7083 26.8346 18.4601C27.3852 19.2119 27.7533 20.0814 27.91 21ZM20.056 21C20.2399 19.1928 20.9118 17.4696 22 16.015C23.0886 17.4694 23.7609 19.1926 23.945 21H20.056ZM23.946 23C23.7617 24.8075 23.089 26.5307 22 27.985C20.9114 26.5306 20.2391 24.8074 20.055 23H23.946ZM19.262 16.668C18.5871 18.0225 18.1738 19.4922 18.044 21H16.09C16.2467 20.0814 16.6148 19.2119 17.1654 18.4601C17.7159 17.7083 18.4336 17.0947 19.262 16.668ZM16.09 23H18.043C18.1728 24.5078 18.5861 25.9775 19.261 27.332C18.4328 26.9051 17.7152 26.2916 17.1649 25.5397C16.6146 24.7879 16.2466 23.9185 16.09 23ZM24.738 27.332C25.413 25.9775 25.8262 24.5078 25.956 23H27.91C27.7534 23.9186 27.3853 24.7881 26.8347 25.54C26.2842 26.2918 25.5664 26.9053 24.738 27.332ZM6 14H12V16H6V14ZM6 6H18V8H6V6ZM6 10H18V12H6V10ZM6 24H12V26H6V24Z" fill="#15357A" class="two_elementor_element"></path><path id="Vector_2" d="M12 30H4C3.46973 29.9995 2.96133 29.7886 2.58637 29.4136C2.21141 29.0387 2.00053 28.5303 2 28V4C2.00053 3.46973 2.21141 2.96133 2.58637 2.58637C2.96133 2.21141 3.46973 2.00053 4 2H20C20.5303 2.00053 21.0387 2.21141 21.4136 2.58637C21.7886 2.96133 21.9995 3.46973 22 4V12H20V4H4V28H12V30Z" fill="#15357A" class="two_elementor_element"></path></g></svg>