<svg xmlns="http://www.w3.org/2000/svg" width="32" height="32" viewBox="0 0 32 32" fill="none" class="two_elementor_element"><g id="carbon:building-insights-3" class="two_elementor_element"><path id="Vector" d="M28 2H16C15.4697 2.00053 14.9613 2.21141 14.5864 2.58637C14.2114 2.96133 14.0005 3.46973 14 4V14H4C3.46973 14.0005 2.96133 14.2114 2.58637 14.5864C2.21141 14.9613 2.00053 15.4697 2 16V30H30V4C29.9995 3.46973 29.7886 2.96133 29.4136 2.58637C29.0387 2.21141 28.5303 2.00053 28 2ZM9 28V21H13V28H9ZM28 28H15V20C15 19.7348 14.8946 19.4804 14.7071 19.2929C14.5196 19.1054 14.2652 19 14 19H8C7.73478 19 7.48043 19.1054 7.29289 19.2929C7.10536 19.4804 7 19.7348 7 20V28H4V16H16V4H28V28Z" fill="#15357A" class="two_elementor_element"></path><path id="Vector_2" d="M18 8H20V10H18V8ZM24 8H26V10H24V8ZM18 14H20V16H18V14ZM24 14H26V16H24V14ZM18 20H20V22H18V20ZM24 20H26V22H24V20ZM2 10H7V12H2V10ZM10 2H12V7H10V2ZM4 5.414L5.414 4L9 7.585L7.585 9L4 5.414Z" fill="#15357A" class="two_elementor_element"></path></g></svg>