<svg xmlns="http://www.w3.org/2000/svg" width="32" height="32" viewBox="0 0 32 32" fill="none" class="two_elementor_element"><g id="carbon:user-identification" class="two_elementor_element"><path id="Vector" d="M22 11H26C26.2652 11 26.5196 11.1054 26.7071 11.2929C26.8946 11.4804 27 11.7348 27 12V14H21V12C21 11.7348 21.1054 11.4804 21.2929 11.2929C21.4804 11.1054 21.7348 11 22 11Z" fill="#15357A" class="two_elementor_element"></path><path id="Vector_2" d="M24 10C25.1046 10 26 9.10457 26 8C26 6.89543 25.1046 6 24 6C22.8954 6 22 6.89543 22 8C22 9.10457 22.8954 10 24 10Z" fill="#15357A" class="two_elementor_element"></path><path id="Vector_3" d="M29.9998 18H17.9998C17.4695 17.9995 16.9611 17.7886 16.5861 17.4136C16.2112 17.0387 16.0003 16.5303 15.9998 16V4C16.0003 3.46973 16.2112 2.96133 16.5861 2.58637C16.9611 2.21141 17.4695 2.00053 17.9998 2H29.9998C30.53 2.00053 31.0384 2.21141 31.4134 2.58637C31.7883 2.96133 31.9992 3.46973 31.9998 4V16C31.999 16.5302 31.788 17.0384 31.4131 17.4133C31.0382 17.7882 30.5299 17.9992 29.9998 18ZM17.9998 4V16H30.0008L29.9998 4H17.9998ZM14.9998 30H12.9998V26C13.0071 25.604 12.9345 25.2106 12.7863 24.8433C12.6382 24.476 12.4174 24.1424 12.1374 23.8624C11.8573 23.5823 11.5237 23.3616 11.1564 23.2134C10.7891 23.0653 10.3957 22.9927 9.99976 23H5.99976C5.60378 22.9927 5.21038 23.0653 4.84309 23.2134C4.47581 23.3616 4.14216 23.5823 3.86212 23.8624C3.58207 24.1424 3.36136 24.476 3.21319 24.8433C3.06502 25.2106 2.99243 25.604 2.99976 26V30H0.999757V26C0.993207 25.3416 1.11806 24.6884 1.36702 24.0789C1.61597 23.4693 1.98402 22.9155 2.44963 22.4499C2.91523 21.9843 3.46903 21.6162 4.07862 21.3673C4.6882 21.1183 5.34133 20.9935 5.99976 21H9.99976C10.6582 20.9935 11.3113 21.1183 11.9209 21.3673C12.5305 21.6162 13.0843 21.9843 13.5499 22.4499C14.0155 22.9155 14.3835 23.4693 14.6325 24.0789C14.8814 24.6884 15.0063 25.3416 14.9998 26V30ZM7.99976 11C8.79541 11 9.55847 11.3161 10.1211 11.8787C10.6837 12.4413 10.9998 13.2044 10.9998 14C10.9998 14.7956 10.6837 15.5587 10.1211 16.1213C9.55847 16.6839 8.79541 17 7.99976 17C7.20411 17 6.44105 16.6839 5.87844 16.1213C5.31583 15.5587 4.99976 14.7956 4.99976 14C4.99976 13.2044 5.31583 12.4413 5.87844 11.8787C6.44105 11.3161 7.20411 11 7.99976 11ZM7.99976 9C6.67367 9 5.4019 9.52678 4.46422 10.4645C3.52654 11.4021 2.99976 12.6739 2.99976 14C2.99976 15.3261 3.52654 16.5979 4.46422 17.5355C5.4019 18.4732 6.67367 19 7.99976 19C9.32584 19 10.5976 18.4732 11.5353 17.5355C12.473 16.5979 12.9998 15.3261 12.9998 14C12.9998 12.6739 12.473 11.4021 11.5353 10.4645C10.5976 9.52678 9.32584 9 7.99976 9Z" fill="#15357A" class="two_elementor_element"></path></g></svg>