<svg xmlns="http://www.w3.org/2000/svg" width="32" height="32" viewBox="0 0 32 32" fill="none" class="two_elementor_element"><g class="two_elementor_element"><path id="Vector" d="M2 6H4V26H2V6ZM6 4H8V28H6V4ZM14 22H26V24H14V22ZM14 16H26V18H14V16Z" fill="#15357A" class="two_elementor_element"></path><path id="Vector_2" d="M29.7 9.3L22.7 2.3C22.5 2.1 22.3 2 22 2H12C10.9 2 10 2.9 10 4V28C10 29.1 10.9 30 12 30H28C29.1 30 30 29.1 30 28V10C30 9.7 29.9 9.5 29.7 9.3ZM22 4.4L27.6 10H22V4.4ZM28 28H12V4H20V10C20 11.1 20.9 12 22 12H28V28Z" fill="#15357A" class="two_elementor_element"></path></g></svg>