<?xml version="1.0" encoding="utf-8"?>
<!-- Uploaded to: SVG Repo, www.svgrepo.com, Generator: SVG Repo Mixer Tools -->
<svg width="800px" height="800px" viewBox="0 0 1024 1024" class="icon"  version="1.1" xmlns="http://www.w3.org/2000/svg"><path d="M813.546515 191.345737H212.813541c-21.848689 0-39.553714 16.667829-39.553714 37.226423v698.689107c0 20.55757 17.705025 37.225399 39.553714 37.225398h600.732974c21.84357 0 39.554738-16.666805 39.554738-37.225398v-698.689107c0-20.558593-17.711168-37.226423-39.554738-37.226423z" fill="#DCE5F7" /><path d="M813.545491 215.045611c8.741933 0 15.854864 6.067544 15.854864 13.525525V927.261267c0 7.457981-7.112931 13.524501-15.854864 13.524501H212.813541c-8.741933 0-15.852816-6.066521-15.852817-13.524501v-698.689107c0-7.457981 7.111907-13.525525 15.852817-13.525525h600.73195m0-23.700898H212.813541c-21.848689 0-39.553714 16.667829-39.553714 37.226423v698.689107c0 20.55757 17.705025 37.224375 39.553714 37.224375h600.73195c21.844593 0 39.554738-16.666805 39.554738-37.224375v-698.689107c0.001024-20.558593-17.710144-37.226423-39.554738-37.226423z" fill="#4E6DC4" /><path d="M708.478474 403.955525H317.881581c-14.205385 0-25.717952 9.382885-25.717951 20.954837V818.210312c0 11.571952 11.511543 20.954837 25.717951 20.954838h390.59587c14.203337 0 25.718975-9.381861 25.718975-20.954838V424.910362c0-11.571952-11.515638-20.954837-25.717952-20.954837z" fill="#FFFFFF" /><path d="M708.478474 427.656422c0.821156 0 1.497944 0.117747 2.018078 0.268258V815.197018a7.279825 7.279825 0 0 1-2.018078 0.268258H317.881581a7.314637 7.314637 0 0 1-2.017054-0.267234v-387.274385a7.314637 7.314637 0 0 1 2.017054-0.267235h390.596893m0-23.700897H317.881581c-14.205385 0-25.717952 9.382885-25.717951 20.954837V818.210312c0 11.571952 11.511543 20.954837 25.717951 20.954838h390.59587c14.203337 0 25.718975-9.381861 25.718975-20.954838V424.910362c0-11.571952-11.515638-20.954837-25.717952-20.954837z" fill="#4E6DC4" /><path d="M683.473147 160.891292h-75.33953c0.048123-1.245045 0.310237-2.471659 0.183276-3.722847-5.228982-51.589486-45.082695-83.34017-95.137377-83.34017-50.052634 0-87.577007 28.933975-95.137377 83.34017-0.173037 1.246068 0.136177 2.477802 0.1843 3.722847h-73.949094c-13.146688 0-19.080103 1.783608-19.080103 14.178764V298.653015c0 5.591438 3.67882 16.321756 15.699234 16.321756h342.575647c12.771946 0 17.689667-4.677108 17.689667-20.078391V175.821588c0.001024-9.766842-9.80063-14.930296-17.688643-14.930296z" fill="#FFFFFF" /><path d="M683.477243 332.750444H340.899547c-20.957909 0-33.479002-17.335402-33.479002-34.098453V175.07108c0-21.206713 12.405395-31.957509 36.857824-31.957509h58.243717c12.06956-54.014046 53.545107-87.058921 110.655382-87.058921 57.121538 0 100.321308 34.491625 110.967668 87.058921H683.477243c17.05793 0 35.458173 12.503688 35.458172 32.709041v119.073768c0 31.286864-19.279761 37.854064-35.458172 37.854064z m-340.506376-35.555442l340.355864 0.006143c0.034812-0.648119 0.058361-1.405795 0.058362-2.302718V178.663894h-75.255572a17.780793 17.780793 0 0 1-12.856928-5.50236 17.735742 17.735742 0 0 1-4.895195-13.099589c0.023549-0.676788 0.080887-1.35972 0.150511-2.036508-4.513287-40.388181-34.775241-66.419441-77.350441-66.419441-42.806598 0-70.927608 24.267106-77.338154 66.64572 0.080887 0.73515 0.126962 1.353576 0.150511 1.97917a17.781816 17.781816 0 0 1-4.96482 12.996177 17.784888 17.784888 0 0 1-12.79959 5.438878h-73.94807c-0.462796 0-0.903067 0.006143-1.307502 0.006144v118.522917z" fill="#4E6DC4" /><path d="M683.473147 160.891292h-75.33953c0.048123-1.245045 0.310237-2.471659 0.183276-3.722847-5.228982-51.589486-45.082695-83.34017-95.137377-83.34017-50.052634 0-87.577007 28.933975-95.137377 83.34017-0.173037 1.246068 0.136177 2.477802 0.1843 3.722847h-73.949094c-13.146688 0-19.080103 1.783608-19.080103 14.178764V298.653015c0 5.591438 3.67882 16.321756 15.699234 16.321756h342.575647c12.771946 0 17.689667-4.677108 17.689667-20.078391V175.821588c0.001024-9.766842-9.80063-14.930296-17.688643-14.930296z" fill="#FFFFFF" /><path d="M683.477243 326.82522H340.899547c-17.243253 0-27.553778-14.326203-27.553778-28.173229V175.07108c0-26.032284 21.674628-26.032284 30.9326-26.032284h63.081575c10.102677-53.887085 50.108948-87.058921 105.818548-87.058922 55.8253 0 97.613131 34.688211 106.026397 87.058922H683.477243c14.199242 0 29.532948 10.241925 29.532948 26.78484v119.073767c0 21.484186-9.66343 31.927816-29.532948 31.927817zM337.137793 173.132865c-0.058361 0.468939-0.09215 1.099653-0.09215 1.938215v123.581935c0 0.746412 0.185323 4.472331 3.853904 4.472331H683.477243c3.598957 0 4.849121-0.486346 5.080519-0.595901-0.09215-0.046075 0.752556-1.833779 0.752555-7.632042V175.822612c0-1.700674-3.529333-3.083943-5.832051-3.083943h-75.347721a11.865807 11.865807 0 0 1-8.575039-3.668581 11.859664 11.859664 0 0 1-3.263123-8.731694l0.150511-1.903403c-4.327963-43.546867-37.818228-72.755243-83.263378-72.755243-46.543779 0-76.944982 26.651735-83.402627 73.119746 0.196586 0.174061 0.26621 0.908186 0.28976 1.64948a11.825876 11.825876 0 0 1-3.309198 8.66207 11.83509 11.83509 0 0 1-8.528965 3.627625h-73.948069c-3.902027 0-6.008159 0.19761-7.142624 0.394196z" fill="#4E6DC4" /><path d="M513.18054 168.657462m-22.021726 0a22.021726 22.021726 0 1 0 44.043451 0 22.021726 22.021726 0 1 0-44.043451 0Z" fill="#4E6DC4" /><path d="M541.244213 739.412098l-5.965156-0.010239-9.404387 0.056314-127.105124-0.227303 0.010239-6.120786s-2.697938-34.194698 47.669029-42.856768c0 0 38.337338-5.105092 41.040395-15.641896 0 0 1.464156-1.169277 0.407507-13.412898-2.254595-26.06812-19.287952-38.364983-26.170509-48.341722-6.880509-9.978786-7.434431-21.478042-7.434432-21.478042 0.005119-2.874046 1.210232-3.925576 3.215-5.767546 2.477802-2.279169 1.739581-4.705777 1.271666-7.27573-1.779513-9.758651-1.91057-25.431264-0.1843-35.245204 0.403411-11.689699 11.152159-21.060297 11.152159-21.060297 2.017054-1.704769 4.039228-3.580527 5.456285-5.833075 0.396244-0.626618 0.759723-1.29931 0.976787-2.012959 0.812965-2.689747-1.920809-4.669941-1.365863-7.5317 0.499656-2.580191 4.923865-2.698962 7.599277-2.835139 6.025565-0.307166 12.080823-0.53242 18.095125-0.061433 45.014094 3.532404 59.786712 20.131633 59.786712 20.131634 3.496568 4.203049 5.797239 9.339882 7.176412 14.602652 0.41365 1.572688 0.767914 3.179164 0.957333 4.796903 1.389412 8.066169 1.368935 16.474315 0.918425 24.62137-0.215016 3.883597-0.673717 7.707809-1.251188 11.550451-0.302046 2.010911-0.152559 3.883597 1.189755 5.493144 1.121154 1.347433 2.405107 2.289408 2.952885 4.057658 0.255971 0.826275 0.322524 1.719103 0.320476 2.580191 0 0-0.595901 11.498232-7.51327 21.451421-6.916345 9.953189-23.994753 22.187595-26.340474 48.248549-1.102724 12.239525 0.35836 13.414946 0.35836 13.414945 2.66415 10.546019 40.985106 15.788312 40.985106 15.788312 50.897339 9.533396 47.513398 43.026733 47.513398 43.026733l-0.010239 6.119762-33.519958-0.060409 5.281201-0.062457-4.510215-0.008191-9.348073-0.016382-44.211368-0.079863z" fill="#4E6DC4" /></svg>