<?xml version="1.0" encoding="utf-8"?>
<!-- Uploaded to: SVG Repo, www.svgrepo.com, Generator: SVG Repo Mixer Tools -->
<svg width="800px" height="800px" viewBox="0 0 1024 1024" fill="#000000" class="icon"  version="1.1" xmlns="http://www.w3.org/2000/svg"><path d="M945.101 387.015c15.941-0.014 28.858-12.94 28.858-28.882 0-9.69-4.771-18.263-12.093-23.503l-429.261-304.162c-4.639-3.326-10.429-5.318-16.686-5.318-6.164 0-11.877 1.934-16.564 5.229l-436.924 303.382c-7.521 5.287-12.374 13.926-12.374 23.7 0 15.933 12.901 28.852 28.826 28.882l126.739 0.099c-3.338 6.445-5.294 14.068-5.294 22.15v129.156c-8.971 9.602-14.478 22.54-14.478 36.762 0 0.021 0 0.042 0 0.065v246.944c-19.429 1.355-35.919 12.758-44.418 28.999l-27.563-0.727c-31.729 0.035-57.442 25.748-57.477 57.474v34.093c0.035 31.729 25.748 57.442 57.474 57.477h796.225c31.734-0.029 57.454-25.743 57.49-57.474v-34.093c-0.035-31.733-25.755-57.45-57.487-57.477h-18.955c-8.191-14.897-22.771-25.411-39.951-27.889l3.153-247.331c0-0.030 0-0.065 0-0.098 0-14.21-5.514-27.131-14.519-36.741l0.029-129.142c-0.002-7.892-1.868-15.348-5.181-21.954l110.428 0.38zM703.074 386.83c-3.211 6.355-5.093 13.855-5.095 21.793v129.127c-5.356 5.797-9.449 12.846-11.786 20.652-18.649-84.281-85.596-133.99-164.138-133.99-80.033 0-147.987 51.598-172.521 123.319-4.549-7.921-10.794-14.391-18.275-19.071l10.967-120.068c-0.005-8.048-1.943-15.643-5.373-22.347l366.219 0.586zM442.455 650.107h30.908c2.336 26.545 15.2 41.794 38.563 45.722v-89.069c-43.012-8.588-64.524-29.589-64.524-62.932 0-18.815 5.815-33.927 17.447-45.41 11.633-11.484 27.317-18.119 47.075-19.934v-24.544h17.063v24.544c37.817 2.858 58.583 22.147 62.311 57.851h-31.081c-1.714-19.76-12.129-30.981-31.231-33.628v80.146c26.335 5.42 44.241 13.297 53.687 23.662 9.458 10.34 14.18 24.457 14.18 42.291 0 18.591-5.99 34.772-17.996 48.517s-28.634 21.214-49.872 22.394v24.693h-17.063v-24.395c-43.334-4.734-66.499-28.061-69.471-69.905zM356.705 821.397v-137.747c29.018 62.275 92.113 105.436 165.348 105.436 70.116 0 130.924-39.618 161.435-97.618v129.906l-326.783 0.023zM528.988 695.828v-85.252c14.553 3.84 24.321 8.711 29.292 14.665 4.983 5.953 7.506 14.466 7.506 25.515 0 26.967-12.267 41.994-36.798 45.074zM511.926 579.345c-9.98-2.547-18.081-6.513-24.297-11.943s-9.321-14.068-9.321-25.974c0-22.083 11.197-35.108 33.617-39.035v76.951z" /></svg>