<?xml version="1.0" encoding="iso-8859-1"?>
<!-- Uploaded to: SVG Repo, www.svgrepo.com, Generator: SVG Repo Mixer Tools -->
<svg fill="#000000" height="800px" width="800px" version="1.1" id="Layer_1" xmlns="http://www.w3.org/2000/svg" xmlns:xlink="http://www.w3.org/1999/xlink" 
	 viewBox="0 0 512 512" xml:space="preserve">
<g transform="translate(1 1)">
	<g>
		<g>
			<path d="M505.88,59.48l-128-59.733c-1.707-0.853-4.267-0.853-6.827,0l-128,59.733c-3.413,1.707-5.12,4.267-5.12,7.68v42.667
				c0,2.56,1.707,5.973,3.413,6.827c2.56,1.707,5.973,1.707,8.533,0.853l4.267-1.987v81.537l-90.453-35.176
				c-1.707-0.853-4.267-0.853-5.973,0L4.12,221.613C1.56,222.467-1,225.88-1,229.293v42.667c0,2.56,1.707,5.12,4.267,6.827
				c1.707,1.707,5.12,1.707,7.68,0.853l13.653-5.275V502.36c0,5.12,3.413,8.533,8.533,8.533h76.8h102.4h76.8H459.8h25.6
				c5.12,0,8.533-3.413,7.68-8.533V114.725l5.973,2.782c0.853,0.853,2.56,0.853,3.413,0.853c1.707,0,3.413-0.853,4.267-1.707
				c2.56-0.853,4.267-4.267,4.267-6.827V67.16C511,63.747,509.293,61.187,505.88,59.48z M220.867,476.76H280.6v17.067h-59.733
				V476.76z M297.667,408.493h153.6v17.067h-153.6V408.493z M451.267,391.427h-153.6V374.36h153.6V391.427z M297.667,442.627h153.6
				v17.067h-153.6V442.627z M451.267,357.293h-153.6v-17.067h153.6V357.293z M16.067,235.267l145.067-57.173l95.698,37.153
				c0.683,0.574,1.492,1.011,2.436,1.247l46.08,17.92v24.418l-140.8-54.284c-1.707-0.853-2.56-0.853-3.413-0.853
				s-1.707,0-3.413,0.853l-128,49.493c-0.839,0.28-1.675,0.837-2.424,1.576l-11.229,4.397V235.267z M161.133,221.613L280.6,267.771
				v63.922v128h-59.733v-76.8c0-5.12-3.413-8.533-8.533-8.533h-102.4c-5.12,0-8.533,3.413-8.533,8.533v76.8H41.667V267.771
				L161.133,221.613z M41.667,476.76H101.4v17.067H41.667V476.76z M118.467,493.827v-102.4H203.8v102.4H118.467z M297.667,493.827
				V476.76h153.6v17.067H297.667z M476.867,107.267v386.56h-8.533V331.693c0-5.12-3.413-8.533-8.533-8.533H297.667v-48.64
				l4.641,1.638l9.012,3.482c1.707,0.853,2.56,0.853,3.413,0.853c0.809,0,1.616-0.195,2.334-0.488
				c0.929-0.211,1.857-0.599,2.786-1.218c1.707-1.707,3.413-4.267,3.413-6.827v-42.667c0-3.413-1.707-6.827-5.12-7.68l-46.08-17.92
				v-96.427l102.4-47.787L476.867,107.267z M493.933,96.173L377.88,42.413c-0.853-0.853-2.56-0.853-3.413-0.853
				c-0.702,0-1.977,0.008-2.884,0.484c-0.458,0.099-0.92,0.215-1.383,0.37l-65.929,30.936L255,96.173V72.28l119.467-55.467
				L493.933,72.28V96.173z"/>
			<path d="M186.733,434.093H178.2c-5.12,0-8.533,3.413-8.533,8.533s3.413,8.533,8.533,8.533h8.533c5.12,0,8.533-3.413,8.533-8.533
				S191.853,434.093,186.733,434.093z"/>
			<path d="M314.733,203.693h8.533h102.4h8.533c5.12,0,8.533-3.413,8.533-8.533s-3.413-8.533-8.533-8.533v-76.8
				c0-5.12-3.413-8.533-8.533-8.533h-102.4c-5.12,0-8.533,3.413-8.533,8.533v76.8c-5.12,0-8.533,3.413-8.533,8.533
				S309.613,203.693,314.733,203.693z M383,186.627v-25.6h34.133v25.6H383z M417.133,143.96H383v-25.6h34.133V143.96z
				 M365.933,118.36v25.6H331.8v-25.6H365.933z M331.8,161.027h34.133v25.6H331.8V161.027z"/>
			<path d="M101.4,348.76h8.533h102.4h8.533c5.12,0,8.533-3.413,8.533-8.533c0-5.12-3.413-8.533-8.533-8.533V271.96
				c0-5.12-3.413-8.533-8.533-8.533h-102.4c-5.12,0-8.533,3.413-8.533,8.533v59.733c-5.12,0-8.533,3.413-8.533,8.533
				C92.867,345.347,96.28,348.76,101.4,348.76z M169.667,331.693v-17.067H203.8v17.067H169.667z M203.8,297.56h-34.133v-17.067
				H203.8V297.56z M152.6,280.493v17.067h-34.133v-17.067H152.6z M118.467,314.627H152.6v17.067h-34.133V314.627z"/>
		</g>
	</g>
</g>
</svg>