<?xml version="1.0" encoding="iso-8859-1"?>
<!-- Uploaded to: SVG Repo, www.svgrepo.com, Generator: SVG Repo Mixer Tools -->
<svg fill="#000000" version="1.1" id="Layer_1" xmlns="http://www.w3.org/2000/svg" xmlns:xlink="http://www.w3.org/1999/xlink" 
	 viewBox="0 0 64 64" xml:space="preserve">
<g>
	<g>
		<path d="M63.707,54.293L46,36.586V7c0-0.553-0.448-1-1-1h-4V3c0-1.654-1.346-3-3-3s-3,1.346-3,3v3h-4V3c0-1.654-1.346-3-3-3
			s-3,1.346-3,3v3h-4V3c0-1.654-1.346-3-3-3s-3,1.346-3,3v3h-4V3c0-1.654-1.346-3-3-3S5,1.346,5,3v3H1C0.448,6,0,6.447,0,7v52
			c0,2.757,2.243,5,5,5h36c2.757,0,5-2.243,5-5V45.414l13.293,13.293C59.488,58.902,59.744,59,60,59s0.512-0.098,0.707-0.293l3-3
			C64.098,55.316,64.098,54.684,63.707,54.293z M37,3c0-0.552,0.449-1,1-1s1,0.448,1,1v8c0,0.552-0.449,1-1,1s-1-0.448-1-1V3z M27,3
			c0-0.552,0.449-1,1-1s1,0.448,1,1v8c0,0.552-0.449,1-1,1s-1-0.448-1-1V3z M17,3c0-0.552,0.449-1,1-1s1,0.448,1,1v8
			c0,0.552-0.449,1-1,1s-1-0.448-1-1V3z M7,3c0-0.552,0.449-1,1-1s1,0.448,1,1v8c0,0.552-0.449,1-1,1s-1-0.448-1-1V3z M44,59
			c0,1.654-1.346,3-3,3H5c-1.654,0-3-1.346-3-3V8h3v3c0,1.654,1.346,3,3,3s3-1.346,3-3V8h4v3c0,1.654,1.346,3,3,3s3-1.346,3-3V8h4v3
			c0,1.654,1.346,3,3,3s3-1.346,3-3V8h4v3c0,1.654,1.346,3,3,3s3-1.346,3-3V8h3v26.586l-1.293-1.293C42.519,33.105,42.265,33,42,33
			h-3H5v2h33v2c0,0.266,0.105,0.519,0.293,0.707L44,43.414V59z M60,56.586l-20-20V35h1.586l20,20L60,56.586z"/>
	</g>
</g>
<g>
	<g>
		<rect x="5" y="21" width="36" height="2"/>
	</g>
</g>
<g>
	<g>
		<rect x="5" y="25" width="11" height="2"/>
	</g>
</g>
<g>
	<g>
		<rect x="18" y="25" width="2" height="2"/>
	</g>
</g>
<g>
	<g>
		<rect x="22" y="25" width="2" height="2"/>
	</g>
</g>
<g>
	<g>
		<rect x="26" y="25" width="2" height="2"/>
	</g>
</g>
<g>
	<g>
		<rect x="30" y="25" width="11" height="2"/>
	</g>
</g>
<g>
	<g>
		<rect x="5" y="29" width="23" height="2"/>
	</g>
</g>
<g>
	<g>
		<rect x="30" y="29" width="2" height="2"/>
	</g>
</g>
<g>
	<g>
		<rect x="34" y="29" width="7" height="2"/>
	</g>
</g>
<g>
	<g>
		<rect x="13" y="17" width="10" height="2"/>
	</g>
</g>
<g>
	<g>
		<rect x="25" y="17" width="16" height="2"/>
	</g>
</g>
<g>
	<g>
		<path d="M63,22H53c-2.757,0-5,2.243-5,5s2.243,5,5,5h10c0.552,0,1-0.447,1-1v-8C64,22.447,63.552,22,63,22z M52,29.829
			c-1.164-0.413-2-1.525-2-2.829s0.836-2.416,2-2.829V29.829z M62,30h-8v-6h8V30z"/>
	</g>
</g>
<g>
	<g>
		<rect x="31" y="57" width="2" height="2"/>
	</g>
</g>
<g>
	<g>
		<rect x="35" y="57" width="2" height="2"/>
	</g>
</g>
<g>
	<g>
		<rect x="39" y="57" width="2" height="2"/>
	</g>
</g>
</svg>